<svg width="1280" height="720" viewBox="0 0 1280 720" fill="none" xmlns="http://www.w3.org/2000/svg">
  <defs>
    <linearGradient id="bg" x1="0" y1="0" x2="0" y2="720" gradientUnits="userSpaceOnUse">
      <stop stop-color="#050B19"/>
      <stop offset="1" stop-color="#0F1C34"/>
    </linearGradient>
    <linearGradient id="line" x1="180" y1="560" x2="1100" y2="220" gradientUnits="userSpaceOnUse">
      <stop stop-color="#63FBA2"/>
      <stop offset="0.5" stop-color="#7DF9FF"/>
      <stop offset="1" stop-color="#B5A8FF"/>
    </linearGradient>
  </defs>
  <rect width="1280" height="720" rx="36" fill="url(#bg)"/>
  <rect x="160" y="140" width="960" height="440" rx="32" fill="#0A152B" stroke="#7DF9FF" stroke-opacity="0.18" stroke-width="2"/>
  <path d="M220 460C340 420 420 240 560 240C720 240 760 420 900 360C1000 320 1050 280 1100 260" stroke="url(#line)" stroke-width="12" stroke-linecap="round" stroke-linejoin="round" fill="none"/>
  <g opacity="0.7">
    <rect x="240" y="480" width="120" height="80" rx="18" fill="#0F1D35" stroke="#7DF9FF" stroke-opacity="0.18"/>
    <rect x="400" y="480" width="140" height="80" rx="18" fill="#0F1D35" stroke="#7DF9FF" stroke-opacity="0.18"/>
    <rect x="580" y="480" width="160" height="80" rx="18" fill="#0F1D35" stroke="#7DF9FF" stroke-opacity="0.18"/>
    <rect x="780" y="480" width="180" height="80" rx="18" fill="#0F1D35" stroke="#7DF9FF" stroke-opacity="0.18"/>
  </g>
  <g opacity="0.75">
    <circle cx="920" cy="300" r="38" fill="#B5A8FF" fill-opacity="0.24"/>
    <circle cx="920" cy="300" r="20" stroke="#B5A8FF" stroke-width="3" stroke-opacity="0.55" fill="none"/>
  </g>
  <g opacity="0.85">
    <circle cx="620" cy="320" r="28" fill="#63FBA2" fill-opacity="0.26"/>
    <path d="M610 320h18" stroke="#63FBA2" stroke-width="3" stroke-linecap="round"/>
    <path d="M619 311v18" stroke="#63FBA2" stroke-width="3" stroke-linecap="round"/>
  </g>
</svg>
