<svg width="1280" height="720" viewBox="0 0 1280 720" fill="none" xmlns="http://www.w3.org/2000/svg">
  <defs>
    <radialGradient id="bg" cx="0" cy="0" r="1" gradientUnits="userSpaceOnUse" gradientTransform="translate(640 360) rotate(90) scale(520 820)">
      <stop stop-color="#0D1C38"/>
      <stop offset="0.58" stop-color="#0A1324"/>
      <stop offset="1" stop-color="#060A18"/>
    </radialGradient>
    <linearGradient id="flow" x1="220" y1="140" x2="1060" y2="580" gradientUnits="userSpaceOnUse">
      <stop stop-color="#63FBA2"/>
      <stop offset="0.45" stop-color="#7DF9FF"/>
      <stop offset="1" stop-color="#B5A8FF"/>
    </linearGradient>
  </defs>
  <rect width="1280" height="720" rx="36" fill="url(#bg)"/>
  <path d="M240 200c120-60 180-60 300 40s220 60 340-20 220-40 180 80-180 200-320 160-140-120-260-80-160 40-200-60 40-120 60-120z" fill="#0F1F3D" fill-opacity="0.6" stroke="#7DF9FF" stroke-opacity="0.18" stroke-width="2"/>
  <path d="M320 220C480 140 620 460 820 340C920 280 1040 300 1040 420" stroke="url(#flow)" stroke-width="14" stroke-linecap="round" stroke-linejoin="round"/>
  <g transform="translate(300 260)" opacity="0.82">
    <rect width="160" height="100" rx="18" fill="#081427" stroke="#7DF9FF" stroke-opacity="0.25"/>
    <circle cx="32" cy="32" r="12" fill="#63FBA2"/>
    <rect x="60" y="26" width="74" height="12" rx="6" fill="#7DF9FF" fill-opacity="0.7"/>
    <rect x="24" y="60" width="112" height="10" rx="5" fill="#B5A8FF" fill-opacity="0.4"/>
  </g>
  <g transform="translate(600 160)" opacity="0.75">
    <rect width="190" height="120" rx="20" fill="#0A162C" stroke="#63FBA2" stroke-opacity="0.35"/>
    <rect x="30" y="36" width="130" height="12" rx="6" fill="#63FBA2" fill-opacity="0.55"/>
    <rect x="30" y="60" width="94" height="12" rx="6" fill="#7DF9FF" fill-opacity="0.45"/>
  </g>
  <g transform="translate(880 360)" opacity="0.9">
    <rect width="210" height="140" rx="24" fill="#0C1A33" stroke="#B5A8FF" stroke-opacity="0.35"/>
    <rect x="36" y="42" width="140" height="14" rx="7" fill="#B5A8FF" fill-opacity="0.45"/>
    <rect x="36" y="68" width="92" height="14" rx="7" fill="#7DF9FF" fill-opacity="0.5"/>
    <rect x="36" y="96" width="64" height="14" rx="7" fill="#63FBA2" fill-opacity="0.55"/>
  </g>
  <circle cx="1060" cy="180" r="54" fill="#7DF9FF" fill-opacity="0.12"/>
  <circle cx="1060" cy="180" r="26" stroke="#7DF9FF" stroke-width="4" stroke-opacity="0.36" fill="none"/>
  <circle cx="220" cy="520" r="44" fill="#63FBA2" fill-opacity="0.14"/>
</svg>
