<svg width="1280" height="720" viewBox="0 0 1280 720" fill="none" xmlns="http://www.w3.org/2000/svg">
  <defs>
    <linearGradient id="bg" x1="0" y1="0" x2="1280" y2="720" gradientUnits="userSpaceOnUse">
      <stop stop-color="#060D1C"/>
      <stop offset="1" stop-color="#091226"/>
    </linearGradient>
  </defs>
  <rect width="1280" height="720" rx="36" fill="url(#bg)"/>
  <g opacity="0.8">
    <rect x="200" y="160" width="320" height="200" rx="28" fill="#0E1C32" stroke="#7DF9FF" stroke-opacity="0.22"/>
    <rect x="560" y="160" width="220" height="200" rx="28" fill="#0E1C32" stroke="#7DF9FF" stroke-opacity="0.22"/>
    <rect x="820" y="160" width="260" height="200" rx="28" fill="#0E1C32" stroke="#7DF9FF" stroke-opacity="0.18"/>
    <rect x="200" y="400" width="260" height="180" rx="28" fill="#0E1C32" stroke="#7DF9FF" stroke-opacity="0.2"/>
    <rect x="500" y="400" width="260" height="180" rx="28" fill="#0E1C32" stroke="#7DF9FF" stroke-opacity="0.2"/>
    <rect x="800" y="400" width="260" height="180" rx="28" fill="#0E1C32" stroke="#7DF9FF" stroke-opacity="0.2"/>
  </g>
  <circle cx="260" cy="220" r="24" fill="#63FBA2" fill-opacity="0.5"/>
  <rect x="300" y="208" width="140" height="12" rx="6" fill="#7DF9FF" fill-opacity="0.5"/>
  <rect x="300" y="232" width="180" height="12" rx="6" fill="#B5A8FF" fill-opacity="0.4"/>
  <circle cx="620" cy="220" r="24" fill="#7DF9FF" fill-opacity="0.5"/>
  <rect x="660" y="208" width="120" height="12" rx="6" fill="#63FBA2" fill-opacity="0.5"/>
  <rect x="660" y="232" width="160" height="12" rx="6" fill="#B5A8FF" fill-opacity="0.4"/>
</svg>
