<svg width="1280" height="720" viewBox="0 0 1280 720" fill="none" xmlns="http://www.w3.org/2000/svg">
  <defs>
    <linearGradient id="bg" x1="90" y1="60" x2="1190" y2="660" gradientUnits="userSpaceOnUse">
      <stop stop-color="#0B162C"/>
      <stop offset="1" stop-color="#030914"/>
    </linearGradient>
  </defs>
  <rect width="1280" height="720" rx="36" fill="url(#bg)"/>
  <g opacity="0.6">
    <path d="M280 160h720" stroke="#14243C" stroke-width="2"/>
    <path d="M280 240h720" stroke="#14243C" stroke-width="2"/>
    <path d="M280 320h720" stroke="#14243C" stroke-width="2"/>
    <path d="M280 400h720" stroke="#14243C" stroke-width="2"/>
    <path d="M280 480h720" stroke="#14243C" stroke-width="2"/>
    <path d="M340 120v480" stroke="#14243C" stroke-width="2"/>
    <path d="M460 120v480" stroke="#14243C" stroke-width="2"/>
    <path d="M600 120v480" stroke="#14243C" stroke-width="2"/>
    <path d="M740 120v480" stroke="#14243C" stroke-width="2"/>
    <path d="M880 120v480" stroke="#14243C" stroke-width="2"/>
  </g>
  <g opacity="0.85">
    <circle cx="360" cy="200" r="44" fill="#7DF9FF" fill-opacity="0.22" stroke="#7DF9FF" stroke-width="3"/>
    <circle cx="520" cy="280" r="44" fill="#B5A8FF" fill-opacity="0.22" stroke="#B5A8FF" stroke-width="3"/>
    <circle cx="680" cy="360" r="44" fill="#63FBA2" fill-opacity="0.22" stroke="#63FBA2" stroke-width="3"/>
    <circle cx="840" cy="440" r="44" fill="#7DF9FF" fill-opacity="0.22" stroke="#7DF9FF" stroke-width="3"/>
    <circle cx="1000" cy="520" r="44" fill="#B5A8FF" fill-opacity="0.22" stroke="#B5A8FF" stroke-width="3"/>
  </g>
  <path d="M360 200L520 280L680 360L840 440L1000 520" stroke="#7DF9FF" stroke-width="4" stroke-linecap="round" stroke-linejoin="round" stroke-dasharray="10 12"/>
  <path d="M360 200L680 360" stroke="#63FBA2" stroke-width="4" stroke-linecap="round" stroke-linejoin="round" stroke-dasharray="6 10"/>
  <path d="M520 280L840 440" stroke="#B5A8FF" stroke-width="4" stroke-linecap="round" stroke-linejoin="round" stroke-dasharray="8 12"/>
</svg>
