<svg width="1080" height="1080" viewBox="0 0 1080 1080" fill="none" xmlns="http://www.w3.org/2000/svg">
  <defs>
    <radialGradient id="mobileBg" cx="0" cy="0" r="1" gradientUnits="userSpaceOnUse" gradientTransform="translate(540 540) rotate(90) scale(520)">
      <stop stop-color="#0A1429"/>
      <stop offset="1" stop-color="#01040B"/>
    </radialGradient>
  </defs>
  <rect width="1080" height="1080" rx="60" fill="url(#mobileBg)"/>
  <rect x="320" y="180" width="440" height="720" rx="48" fill="#0F1E3A" stroke="#7DF9FF" stroke-opacity="0.2" stroke-width="3"/>
  <rect x="360" y="260" width="360" height="520" rx="32" fill="#0A162C" stroke="#7DF9FF" stroke-opacity="0.18"/>
  <rect x="420" y="320" width="240" height="12" rx="6" fill="#63FBA2" fill-opacity="0.6"/>
  <rect x="420" y="360" width="300" height="12" rx="6" fill="#7DF9FF" fill-opacity="0.5"/>
  <rect x="420" y="400" width="180" height="12" rx="6" fill="#B5A8FF" fill-opacity="0.5"/>
  <rect x="420" y="450" width="260" height="14" rx="7" fill="#63FBA2" fill-opacity="0.55"/>
  <rect x="420" y="490" width="220" height="14" rx="7" fill="#7DF9FF" fill-opacity="0.55"/>
  <rect x="420" y="530" width="180" height="14" rx="7" fill="#B5A8FF" fill-opacity="0.55"/>
  <rect x="420" y="620" width="280" height="12" rx="6" fill="#7DF9FF" fill-opacity="0.58"/>
  <rect x="420" y="660" width="180" height="12" rx="6" fill="#63FBA2" fill-opacity="0.6"/>
  <circle cx="540" cy="220" r="32" fill="#7DF9FF" fill-opacity="0.25"/>
  <circle cx="540" cy="220" r="18" stroke="#7DF9FF" stroke-width="3" stroke-opacity="0.5" fill="none"/>
</svg>
